<svg xmlns="http://www.w3.org/2000/svg" width="37.358" height="34.143" viewBox="0 0 37.358 34.143">
  <g id="Group_1094" data-name="Group 1094" transform="translate(-945.537 -1359.032)">
    <path id="Path_814" data-name="Path 814" d="M982.9,1372.6c-.147.548-.255,1.11-.449,1.64a5.194,5.194,0,0,1-2.151,2.76,3.216,3.216,0,0,1-4.833-1.683,6.264,6.264,0,0,1,1.985-7.009,3.242,3.242,0,0,1,5.071,1.552c.163.412.253.852.377,1.28Zm-1.214-.806a10.661,10.661,0,0,0-.247-1.284,2.067,2.067,0,0,0-3.532-.983,5.192,5.192,0,0,0-1.35,5.184,2.067,2.067,0,0,0,3.509.934A5.326,5.326,0,0,0,981.681,1371.794Z" fill="#fff"/>
    <path id="Path_815" data-name="Path 815" d="M964.145,1376.678a16.9,16.9,0,0,1,1.689-1.433,5.375,5.375,0,0,1,6.92.827,6.75,6.75,0,0,1,1.7,6.477,11.318,11.318,0,0,1-2.645,4.962,21.638,21.638,0,0,1-4.632,3.98c-.832.547-1.7,1.033-2.553,1.551a.718.718,0,0,1-.788.029,26.691,26.691,0,0,1-6.881-5.164,11.522,11.522,0,0,1-3-5.377,6.685,6.685,0,0,1,1.979-6.721,5.448,5.448,0,0,1,7.9.507Zm-9.157,4.116c.041.361.065.738.129,1.108a10.151,10.151,0,0,0,2.633,5.032,24.1,24.1,0,0,0,6.254,4.79.462.462,0,0,0,.388,0,24.1,24.1,0,0,0,6.283-4.811,10.273,10.273,0,0,0,2.552-4.681,5.517,5.517,0,0,0-1.527-5.451,4.215,4.215,0,0,0-4.923-.665,5.549,5.549,0,0,0-1.913,1.864c-.443.669-.868.666-1.317.016a9.839,9.839,0,0,0-.64-.841,4.128,4.128,0,0,0-5.071-1.124A5.189,5.189,0,0,0,954.988,1380.794Z" fill="#fff"/>
    <path id="Path_816" data-name="Path 816" d="M965.005,1365.688a7.626,7.626,0,0,1,2.169-5.264,4.21,4.21,0,0,1,2.884-1.388,3.957,3.957,0,0,1,3.649,2.124,7.876,7.876,0,0,1-1.32,9.416,4.013,4.013,0,0,1-6.637-1.328A7.835,7.835,0,0,1,965.005,1365.688Zm8.467-.587a5.972,5.972,0,0,0-1.09-3.683,2.585,2.585,0,0,0-3.731-.6,5.173,5.173,0,0,0-1.018.982,6.486,6.486,0,0,0-1.369,3.772,5.627,5.627,0,0,0,.976,3.732,2.708,2.708,0,0,0,4.336.345A6.634,6.634,0,0,0,973.472,1365.1Z" fill="#fff"/>
    <path id="Path_817" data-name="Path 817" d="M963.4,1365.881a7.272,7.272,0,0,1-.956,3.745,3.974,3.974,0,0,1-6.553.826,7.462,7.462,0,0,1-2.133-4.595,7.113,7.113,0,0,1,1.018-4.815,3.886,3.886,0,0,1,3.64-2,4.447,4.447,0,0,1,3.137,1.726A7.83,7.83,0,0,1,963.4,1365.881Zm-1.239.054a7.254,7.254,0,0,0-.594-2.81,5.144,5.144,0,0,0-2-2.437,2.483,2.483,0,0,0-1.737-.387,3.048,3.048,0,0,0-2.235,1.8,6.771,6.771,0,0,0,.856,7.121,3.357,3.357,0,0,0,2.226,1.33,2.745,2.745,0,0,0,2.667-1.507A5.969,5.969,0,0,0,962.165,1365.935Z" fill="#fff"/>
    <path id="Path_818" data-name="Path 818" d="M953.325,1372.911a5.416,5.416,0,0,1-.7,3.027,3.153,3.153,0,0,1-4.818.848,6.043,6.043,0,0,1-2.246-5.592,4.414,4.414,0,0,1,.629-1.957,3.208,3.208,0,0,1,4.825-.881A6.091,6.091,0,0,1,953.325,1372.911Zm-1.147.359-.093-.024a5.169,5.169,0,0,0-1.629-3.765,1.979,1.979,0,0,0-3.139.35,3.835,3.835,0,0,0-.513,1.6,4.808,4.808,0,0,0,1.685,4.326,1.977,1.977,0,0,0,3.219-.755A11.757,11.757,0,0,0,952.178,1373.27Z" fill="#fff"/>
  </g>
</svg>
