<svg xmlns="http://www.w3.org/2000/svg" width="44.207" height="31.842" viewBox="0 0 44.207 31.842">
  <g id="Group_1093" data-name="Group 1093" transform="translate(-840.495 -1360.182)">
    <path id="Path_812" data-name="Path 812" d="M870.483,1390.586c-.146,1.333-.164,1.349-1.541,1.352-1.648,0-3.3.011-4.944.009-.829,0-1.081-.246-1.086-1.08-.01-1.667,0-3.333,0-5.044H851.952c-.013.285-.036.54-.035.8,0,1.43.017,2.86.009,4.29-.005.807-.247,1.07-1.026,1.082q-2.726.04-5.453.033c-.791,0-1.024-.265-1.031-1.065-.007-.914,0-1.828,0-2.811-.991,0-1.9.006-2.82,0-.819-.006-1.082-.261-1.086-1.092q-.018-4.218-.013-8.436c0-.771.269-1.035,1.058-1.048.915-.015,1.83,0,2.819,0,0-1-.009-1.912,0-2.826.011-.82.211-1.033,1.043-1.044q2.691-.035,5.381-.025c.8,0,1.039.249,1.044,1.045.01,1.692,0,3.383,0,5.117h7.178a1.914,1.914,0,0,0-.952-1.858,9.933,9.933,0,0,1,5.443-17.767,9.7,9.7,0,0,1,8.753,4.068,1.454,1.454,0,0,0,.868.494,12.917,12.917,0,0,1,.8,25.57C872.819,1390.51,871.677,1390.506,870.483,1390.586Zm-.021-1.538c1.008-.05,1.951-.035,2.877-.153a11.369,11.369,0,0,0-.521-22.582,2.042,2.042,0,0,1-1.711-.992,8.265,8.265,0,0,0-8.768-3.436,8.1,8.1,0,0,0-6.382,6.431,7.8,7.8,0,0,0,3.006,8.383,3.521,3.521,0,0,1,1.607,2.98c0,.04.042.08.074.141h2.242c0-1.716,0-3.385,0-5.054,0-.882.238-1.128,1.108-1.133,1.721-.01,3.441-.01,5.161-.01,1,0,1.233.226,1.242,1.238.007.864,0,1.728,0,2.654,1.044,0,1.983.008,2.922,0,.636-.008.931.288.933.924.009,2.86.036,5.719.038,8.579,0,.805-.236,1.02-1.056,1.032-.915.013-1.831,0-2.774,0Zm-24.528,1.4h4.4v-15.19h-4.4Zm18.511-.048h4.375V1375.21h-4.375Zm-1.594-6.191v-2.772H851.924v2.772Zm9.885,2.321v-7.491h-2.265v7.491Zm-30.651-7.391v7.422h2.265v-7.422Z" fill="#fff"/>
    <path id="Path_813" data-name="Path 813" d="M857.183,1369.695a6.647,6.647,0,0,1,4.251-6,6.778,6.778,0,0,1,7.4,1.173,1.554,1.554,0,0,1,.575,1.124c-.033.282-.564.61-.934.731a11.224,11.224,0,0,0-7.627,7.727c-.4,1.274-.967,1.409-1.858.4A7.242,7.242,0,0,1,857.183,1369.695Zm2.471,3.482a13.062,13.062,0,0,1,2.939-4.642,13.5,13.5,0,0,1,4.569-2.985,5.45,5.45,0,0,0-7.508,7.627Z" fill="#fff"/>
  </g>
</svg>
