<svg xmlns="http://www.w3.org/2000/svg" width="35.475" height="35.475" viewBox="0 0 35.475 35.475">
  <g id="Group_1070" data-name="Group 1070" transform="translate(-946.478 -1454.28)">
    <g id="Group_1065" data-name="Group 1065">
      <g id="Group_1064" data-name="Group 1064">
        <path id="Path_784" data-name="Path 784" d="M981.49,1454.742l-.005,0a1.59,1.59,0,0,0-1.111-.458h0a1.577,1.577,0,0,0-.983.345c-3.773,3.013-7.559,6.124-11.255,9.244q-1.347,1.139-2.7,2.293l-10.26-10.26a2.6,2.6,0,0,0-3.675,0l-4.872,4.873a.519.519,0,0,0,.734.735l3.4-3.4.744.744-3.4,3.4a.52.52,0,1,0,.735.735l3.4-3.4.744.744-3.4,3.4a.519.519,0,1,0,.734.735l3.4-3.4.744.744-3.4,3.4a.519.519,0,1,0,.735.734l3.4-3.4.744.743-3.4,3.4a.52.52,0,0,0,0,.735.52.52,0,0,0,.735,0l3.4-3.4.744.744-3.4,3.4a.52.52,0,0,0,.735.735l3.4-3.4.744.743-3.4,3.4a.52.52,0,0,0,0,.735.52.52,0,0,0,.735,0l3.4-3.4.743.744-3.4,3.4a.52.52,0,0,0,.735.735l3.4-3.4.77.77q-2.394,2.083-4.752,4.187h0c-.466.415-.975.893-1.477,1.345a.524.524,0,0,0-.1.766h0a3.476,3.476,0,0,1-.236,4.641c-.007.006-1.561,1.56-1.568,1.567a3.634,3.634,0,1,1,.225-4.824.522.522,0,0,0,.752.058l.008-.007.005,0a.52.52,0,0,0-.046-.808,4.668,4.668,0,0,0-3.546-1.627h-.007a17.9,17.9,0,0,0,5.881,15.234h.006a4.675,4.675,0,0,0,3.342-7.943l1.061-1.206q2.808-3.126,5.553-6.274l.783.783-3.4,3.4a.52.52,0,0,0,.735.735l3.4-3.4.744.743-3.4,3.4a.52.52,0,0,0,.735.735l3.4-3.4.744.744-3.4,3.4a.52.52,0,0,0,.735.735l3.4-3.4.743.743-3.4,3.4a.519.519,0,0,0,.368.887.514.514,0,0,0,.367-.152l3.4-3.4.744.744-3.4,3.4a.52.52,0,0,0,.735.735l3.4-3.4.743.743-3.4,3.4a.52.52,0,1,0,.735.735l3.4-3.4.744.744-3.4,3.4a.52.52,0,0,0,.735.735l3.4-3.4.743.743-3.4,3.4a.52.52,0,1,0,.735.735l3.769-3.77h0l1.1-1.1a2.6,2.6,0,0,0,0-3.675l-10.271-10.27c3.984-4.648,7.847-9.31,11.548-13.942A1.577,1.577,0,0,0,981.49,1454.742Zm-29.987,2.63.735-.735a1.561,1.561,0,0,1,2.205,0l10.2,10.2q-.988.848-1.973,1.7ZM979.6,1481.79a1.558,1.558,0,0,1,0,2.2l-.735.735c-.343-.343-10.446-10.447-11.184-11.184q.856-.984,1.7-1.97Zm-18.64-2.2a1.988,1.988,0,0,1-1.035-1.475.52.52,0,0,0-1.032.122h0a2.835,2.835,0,0,0,1.262,2.055c.037.024.074.049.112.077-.361.411-.658.757-1,1.134a.519.519,0,0,0,.058.752,3.637,3.637,0,1,1-5.925,2.828,3.718,3.718,0,0,1,1.123-2.639l1.541-1.541a4.512,4.512,0,0,0,1.318-3.2,4.438,4.438,0,0,0-.724-2.445c.407-.372.761-.7,1.172-1.069l0,0c11.267-10.046,22.076-18.681,22.279-18.8-.139.14-20.414,20.406-20.508,20.511a.52.52,0,1,0,.778.69c.062-.07,20.317-20.318,20.465-20.466C980.8,1456.2,972.432,1466.8,960.956,1479.588Z" fill="#fff"/>
      </g>
    </g>
    <g id="Group_1067" data-name="Group 1067">
      <g id="Group_1066" data-name="Group 1066">
        <path id="Path_785" data-name="Path 785" d="M952.993,1477.358a2.6,2.6,0,1,0,0,3.674A2.6,2.6,0,0,0,952.993,1477.358Zm-.735,2.939a1.558,1.558,0,1,1-1.1-2.66A1.561,1.561,0,0,1,952.258,1480.3Z" fill="#fff"/>
      </g>
    </g>
    <g id="Group_1069" data-name="Group 1069">
      <g id="Group_1068" data-name="Group 1068">
        <path id="Path_786" data-name="Path 786" d="M957.035,1482.483a2.6,2.6,0,0,0-.022,5.2,2.649,2.649,0,0,0,1.012-.2,2.557,2.557,0,0,0,1.608-2.4A2.6,2.6,0,0,0,957.035,1482.483Zm.592,4.035a1.556,1.556,0,1,1-.592-2.995,1.561,1.561,0,0,1,1.559,1.558A1.538,1.538,0,0,1,957.627,1486.518Z" fill="#fff"/>
      </g>
    </g>
  </g>
</svg>
