<svg xmlns="http://www.w3.org/2000/svg" width="41.289" height="35.103" viewBox="0 0 41.289 35.103">
  <g id="Group_1091" data-name="Group 1091" transform="translate(-841.954 -1454.466)">
    <g id="Group_1072" data-name="Group 1072">
      <g id="Group_1071" data-name="Group 1071">
        <path id="Path_787" data-name="Path 787" d="M879.189,1483.059H860.454a5.859,5.859,0,0,1-5.618-4.253l-5.909-20.779a3.38,3.38,0,0,0-3.24-2.453h-3.093a.469.469,0,1,1,0-.937h3.093a4.323,4.323,0,0,1,4.143,3.134l5.909,20.779a4.921,4.921,0,0,0,4.718,3.571h18.735a.468.468,0,0,1,.469.469A.474.474,0,0,1,879.189,1483.059Z" fill="#fff"/>
        <path id="Path_788" data-name="Path 788" d="M879.189,1483.229H860.454a6.027,6.027,0,0,1-5.782-4.376l-5.909-20.779a3.207,3.207,0,0,0-3.076-2.328h-3.094a.64.64,0,0,1,0-1.28h3.094a4.5,4.5,0,0,1,4.308,3.258L855.9,1478.5a4.75,4.75,0,0,0,4.554,3.447h18.734a.64.64,0,1,1,0,1.279Zm-36.6-28.421a.3.3,0,0,0,0,.6h3.094a3.547,3.547,0,0,1,3.4,2.577L855,1478.759a5.685,5.685,0,0,0,5.453,4.128h18.735a.3.3,0,1,0,0-.595H860.458a5.091,5.091,0,0,1-4.883-3.7l-5.909-20.778a4.151,4.151,0,0,0-3.979-3.01Z" fill="#fff"/>
      </g>
    </g>
    <g id="Group_1074" data-name="Group 1074">
      <g id="Group_1073" data-name="Group 1073">
        <path id="Path_789" data-name="Path 789" d="M879.9,1476.209H859.482a.471.471,0,0,1-.453-.343l-2.962-10.733a.468.468,0,1,1,.9-.247l2.865,10.389h19.676l2.6-13.333a.8.8,0,0,0-.788-.953H850.161a.469.469,0,0,1,0-.937h31.172a1.737,1.737,0,0,1,1.706,2.068l-2.678,13.711A.475.475,0,0,1,879.9,1476.209Z" fill="#fff"/>
        <path id="Path_790" data-name="Path 790" d="M879.9,1476.38H859.482a.641.641,0,0,1-.617-.469l-2.963-10.732a.639.639,0,1,1,1.232-.338l2.831,10.263h19.406l2.574-13.2a.617.617,0,0,0-.132-.519.631.631,0,0,0-.486-.229H850.162a.64.64,0,0,1,0-1.28h31.17a1.911,1.911,0,0,1,1.876,2.273l-2.679,13.711A.652.652,0,0,1,879.9,1476.38Zm-23.38-11.668a.29.29,0,0,0-.078.01.3.3,0,0,0-.209.366l2.962,10.732a.3.3,0,0,0,.288.218H879.9a.3.3,0,0,0,.295-.243l2.677-13.708a1.568,1.568,0,0,0-1.539-1.865h-31.17a.3.3,0,0,0,0,.6h31.165a.974.974,0,0,1,.955,1.157l-2.631,13.471H859.706l-2.9-10.515a.291.291,0,0,0-.14-.18A.278.278,0,0,0,856.519,1464.712Z" fill="#fff"/>
      </g>
    </g>
    <g id="Group_1076" data-name="Group 1076">
      <g id="Group_1075" data-name="Group 1075">
        <path id="Path_791" data-name="Path 791" d="M863.029,1473.491a.47.47,0,0,1-.463-.394l-1.3-8.027a.469.469,0,0,1,.925-.15l1.3,8.027a.468.468,0,0,1-.387.538A.318.318,0,0,1,863.029,1473.491Z" fill="#fff"/>
        <path id="Path_792" data-name="Path 792" d="M863.029,1473.661a.636.636,0,0,1-.632-.537l-1.3-8.027a.639.639,0,0,1,1.262-.2l1.3,8.026a.64.64,0,0,1-.529.733A.466.466,0,0,1,863.029,1473.661Zm-1.3-8.962a.248.248,0,0,0-.046,0,.3.3,0,0,0-.245.341l1.3,8.027a.3.3,0,0,0,.295.248h.04a.3.3,0,0,0,.254-.345l-1.3-8.026A.3.3,0,0,0,861.725,1464.7Z" fill="#fff"/>
      </g>
    </g>
    <g id="Group_1078" data-name="Group 1078">
      <g id="Group_1077" data-name="Group 1077">
        <path id="Path_793" data-name="Path 793" d="M867.237,1473.491a.468.468,0,0,1-.468-.469V1465a.469.469,0,0,1,.937,0v8.027A.469.469,0,0,1,867.237,1473.491Z" fill="#fff"/>
        <path id="Path_794" data-name="Path 794" d="M867.237,1473.661a.64.64,0,0,1-.64-.638V1465a.64.64,0,0,1,1.28,0v8.027A.639.639,0,0,1,867.237,1473.661Zm0-8.961a.3.3,0,0,0-.3.3v8.025a.3.3,0,0,0,.6,0V1465A.3.3,0,0,0,867.237,1464.7Z" fill="#fff"/>
      </g>
    </g>
    <g id="Group_1080" data-name="Group 1080">
      <g id="Group_1079" data-name="Group 1079">
        <path id="Path_795" data-name="Path 795" d="M876.14,1473.491a.621.621,0,0,1-.075-.006.467.467,0,0,1-.388-.538l1.3-8.027a.469.469,0,0,1,.925.15l-1.3,8.027A.47.47,0,0,1,876.14,1473.491Z" fill="#fff"/>
        <path id="Path_796" data-name="Path 796" d="M876.139,1473.661a.886.886,0,0,1-.089-.005.648.648,0,0,1-.43-.259.638.638,0,0,1-.111-.477l1.3-8.026a.62.62,0,0,1,.255-.415.6.6,0,0,1,.478-.114.621.621,0,0,1,.414.254.627.627,0,0,1,.114.478l-1.3,8.027A.634.634,0,0,1,876.139,1473.661Zm1.3-8.963a.3.3,0,0,0-.294.249l-1.3,8.026a.3.3,0,0,0,.245.344l.048,0a.3.3,0,0,0,.294-.248l1.3-8.027a.308.308,0,0,0-.053-.225.3.3,0,0,0-.193-.117A.255.255,0,0,0,877.439,1464.7Z" fill="#fff"/>
      </g>
    </g>
    <g id="Group_1082" data-name="Group 1082">
      <g id="Group_1081" data-name="Group 1081">
        <path id="Path_797" data-name="Path 797" d="M871.931,1473.491a.468.468,0,0,1-.469-.469V1465a.469.469,0,0,1,.937,0v8.027A.467.467,0,0,1,871.931,1473.491Z" fill="#fff"/>
        <path id="Path_798" data-name="Path 798" d="M871.93,1473.661a.638.638,0,0,1-.638-.638V1465a.639.639,0,1,1,1.278,0v8.027A.639.639,0,0,1,871.93,1473.661Zm0-8.961a.3.3,0,0,0-.3.3v8.025a.3.3,0,0,0,.594,0V1465A.3.3,0,0,0,871.93,1464.7Z" fill="#fff"/>
      </g>
    </g>
    <g id="Group_1084" data-name="Group 1084">
      <g id="Group_1083" data-name="Group 1083">
        <path id="Path_799" data-name="Path 799" d="M877.436,1465.476H856.52a.469.469,0,1,1,0-.937h20.916a.469.469,0,1,1,0,.937Z" fill="#fff"/>
        <path id="Path_800" data-name="Path 800" d="M877.437,1465.647H856.519a.639.639,0,0,1,0-1.279h20.918a.639.639,0,0,1,0,1.279Zm-20.918-.937a.3.3,0,0,0,0,.6h20.918a.3.3,0,0,0,0-.6Z" fill="#fff"/>
      </g>
    </g>
    <g id="Group_1086" data-name="Group 1086">
      <g id="Group_1085" data-name="Group 1085">
        <path id="Path_801" data-name="Path 801" d="M876.671,1470.207H857.826a.469.469,0,1,1,0-.937h18.848a.469.469,0,1,1,0,.937Z" fill="#fff"/>
        <path id="Path_802" data-name="Path 802" d="M876.671,1470.378H857.826a.64.64,0,1,1,0-1.28h18.848a.64.64,0,1,1,0,1.28Zm-18.845-.938a.3.3,0,0,0,0,.6h18.845a.3.3,0,1,0,0-.6Z" fill="#fff"/>
      </g>
    </g>
    <g id="Group_1088" data-name="Group 1088">
      <g id="Group_1087" data-name="Group 1087">
        <path id="Path_803" data-name="Path 803" d="M875.4,1489.4a2.49,2.49,0,1,1,2.49-2.49A2.492,2.492,0,0,1,875.4,1489.4Zm0-4.043a1.553,1.553,0,1,0,1.553,1.553A1.555,1.555,0,0,0,875.4,1485.355Z" fill="#fff"/>
        <path id="Path_804" data-name="Path 804" d="M875.4,1489.569a2.661,2.661,0,1,1,2.661-2.661A2.665,2.665,0,0,1,875.4,1489.569Zm0-4.98a2.319,2.319,0,1,0,2.319,2.319A2.322,2.322,0,0,0,875.4,1484.589Zm0,4.043a1.723,1.723,0,1,1,1.724-1.724A1.725,1.725,0,0,1,875.4,1488.632Zm0-3.1a1.382,1.382,0,1,0,1.382,1.381A1.383,1.383,0,0,0,875.4,1485.527Z" fill="#fff"/>
      </g>
    </g>
    <g id="Group_1090" data-name="Group 1090">
      <g id="Group_1089" data-name="Group 1089">
        <path id="Path_805" data-name="Path 805" d="M862.122,1489.4a2.49,2.49,0,1,1,2.491-2.49A2.493,2.493,0,0,1,862.122,1489.4Zm0-4.043a1.553,1.553,0,1,0,1.553,1.553A1.554,1.554,0,0,0,862.122,1485.355Z" fill="#fff"/>
        <path id="Path_806" data-name="Path 806" d="M862.122,1489.569a2.661,2.661,0,1,1,2.661-2.661A2.664,2.664,0,0,1,862.122,1489.569Zm0-4.98a2.319,2.319,0,1,0,2.319,2.319A2.322,2.322,0,0,0,862.122,1484.589Zm0,4.043a1.723,1.723,0,1,1,1.725-1.724A1.725,1.725,0,0,1,862.122,1488.632Zm0-3.1a1.382,1.382,0,1,0,1.383,1.381A1.383,1.383,0,0,0,862.122,1485.527Z" fill="#fff"/>
      </g>
    </g>
  </g>
</svg>
