<svg xmlns="http://www.w3.org/2000/svg" width="42.611" height="29.83" viewBox="0 0 42.611 29.83">
  <g id="Group_1092" data-name="Group 1092" transform="translate(-942.91 -1265.275)">
    <path id="Path_807" data-name="Path 807" d="M979.214,1294.342c0,.579-.181.762-.754.762H943.646c-.535,0-.735-.2-.735-.737,0-2.476,0-24.778,0-26.455a.624.624,0,0,1,.4-.6,21.407,21.407,0,0,1,3.377-1.263,20.747,20.747,0,0,1,14.056,1.045.692.692,0,0,0,.631,0,19.958,19.958,0,0,1,5.2-1.552,20.708,20.708,0,0,1,12,1.661c.076.034.149.076.254.13-.092.1-.849.708-.938.834-.584-.22-1.2-.471-1.823-.682a19.375,19.375,0,0,0-4.979-.977,18.9,18.9,0,0,0-6.706.745c-.871.262-1.716.614-2.569.936a.337.337,0,0,0-.146.219,1.185,1.185,0,0,0-.006.3q0,12.3,0,24.59v.281c.4-.151.755-.3,1.124-.426a22.814,22.814,0,0,1,7.437-1.236,20.679,20.679,0,0,1,6.331,1.12c.495.171.986.355,1.474.542V1280.63a7.114,7.114,0,0,0,1.1-1.158l.065.023C979.2,1279.56,979.214,1293.551,979.214,1294.342ZM950.505,1292a19.272,19.272,0,0,1,2.923-.05l.033,0c.141.007.282.017.422.028a20.8,20.8,0,0,1,6.424,1.547,1.4,1.4,0,0,0,.159.043v-.208c0-7.836-.005-24.449,0-24.919a.259.259,0,0,0-.186-.279,19.64,19.64,0,0,0-9.73-1.622,20.121,20.121,0,0,0-6.262,1.615.293.293,0,0,0-.205.315c.008,1.434,0,18.748,0,24.821v.3a2.155,2.155,0,0,1,.356-.144c.124-.049.247-.1.372-.145.247-.093.5-.183.746-.268q.744-.253,1.506-.454a22.133,22.133,0,0,1,3.234-.56Zm24.786,1.914a18.425,18.425,0,0,0-5.46-.816,17.773,17.773,0,0,0-5.447.816Zm-28.424-.006h10.838A18.926,18.926,0,0,0,946.867,1293.912Z" fill="#fff"/>
    <path id="Path_808" data-name="Path 808" d="M972.709,1283.945a3.2,3.2,0,0,1-.846.53q-3.5,1.757-7,3.5a.568.568,0,0,1-.237.093c-.091,0-.236-.043-.259-.1a.524.524,0,0,1,0-.368c.354-.741.725-1.474,1.093-2.208.866-1.735,1.741-3.466,2.6-5.206a4.712,4.712,0,0,1,1.043-1.2c2.848-2.846,10.77-10.719,11.877-11.816a.857.857,0,0,1,1.306,0q1.462,1.462,2.921,2.928a.861.861,0,0,1-.015,1.355c-.356.353-1.382,1.374-1.532,1.538C983.544,1273.108,976,1280.667,972.709,1283.945Zm-4.283.95c1.126-.561,2.218-1.1,3.308-1.65a.9.9,0,0,0,.22-.17q1.53-1.528,3.056-3.059,3.781-3.8,7.563-7.59c.547-.548,1.108-1.082,1.662-1.622l-2.638-2.611a.831.831,0,0,0-.067.059q-2.075,2.063-4.148,4.127-3.807,3.788-7.611,7.576a3.271,3.271,0,0,0-.63.689c-.553,1.043-1.067,2.107-1.587,3.167a.236.236,0,0,0,.032.215C967.857,1284.32,968.14,1284.6,968.426,1284.9Z" fill="#fff"/>
    <path id="Path_809" data-name="Path 809" d="M976.155,1290.181a.591.591,0,0,1-.885.52c-.541-.261-1.071-.553-1.63-.77a10.16,10.16,0,0,0-5.33-.534,11.752,11.752,0,0,0-3.872,1.291.593.593,0,1,1-.579-1.034,12.275,12.275,0,0,1,11.866-.062A.662.662,0,0,1,976.155,1290.181Z" fill="#fff"/>
    <path id="Path_810" data-name="Path 810" d="M952.651,1275.1a12.756,12.756,0,0,0-5.739,1.362.605.605,0,0,1-.871-.205.59.59,0,0,1,.306-.84,13.329,13.329,0,0,1,4.077-1.348,11.468,11.468,0,0,1,5.787.45,22.4,22.4,0,0,1,2.069.934.544.544,0,0,1,.309.582.521.521,0,0,1-.424.5.738.738,0,0,1-.468-.064,10.365,10.365,0,0,0-3.916-1.291C953.354,1275.132,952.923,1275.119,952.651,1275.1Z" fill="#fff"/>
    <path id="Path_811" data-name="Path 811" d="M952.306,1270.075a11.574,11.574,0,0,1,5.941,1.53.583.583,0,0,1,.336.658.548.548,0,0,1-.538.469,1.009,1.009,0,0,1-.459-.141,10.24,10.24,0,0,0-3.53-1.2,11.556,11.556,0,0,0-4.494.26,11.8,11.8,0,0,0-2.7,1.006.6.6,0,0,1-.819-.212.586.586,0,0,1,.244-.824,11.969,11.969,0,0,1,2.651-1.056A12.458,12.458,0,0,1,952.306,1270.075Z" fill="#fff"/>
  </g>
</svg>
