<svg xmlns="http://www.w3.org/2000/svg" width="44.1" height="45.405" viewBox="0 0 44.1 45.405">
  <g id="Group_1101" data-name="Group 1101" transform="translate(-840.548 -1257.487)">
    <g id="Group_1095" data-name="Group 1095">
      <path id="Path_819" data-name="Path 819" d="M864.093,1283.409c-5.544-1.817-8.024-6.092-9.22-11.317a11.489,11.489,0,1,1,22.464-1.306,16.383,16.383,0,0,1-6.6,10.913,9.066,9.066,0,0,1-4.673,1.757c.309.616.6,1.157.852,1.713.268.584.133.789-.513.759-.984-.046-1.967-.106-2.949-.191-.733-.064-.814-.265-.385-.9C863.392,1284.361,863.742,1283.9,864.093,1283.409Zm-8.79-13.546a15.86,15.86,0,0,0,4.537,10.219c2.982,3.07,6.852,3.511,10.34,1.048a14.932,14.932,0,0,0,6.474-11.207,10.652,10.652,0,0,0-10.411-11.523C860.21,1258.238,855.156,1263.277,855.3,1269.863ZM863.839,1285l2.245.15-1.006-1.686Z" fill="#fff"/>
      <path id="Path_820" data-name="Path 820" d="M866.521,1286.1l-.129,0c-1.084-.051-2.051-.112-2.956-.191-.332-.03-.652-.09-.765-.325s.023-.5.253-.837.481-.683.731-1.025l.163-.223c-4.82-1.659-7.719-5.278-9.112-11.367a11.545,11.545,0,0,1,2.8-10.956,11.62,11.62,0,0,1,20,9.637,16.587,16.587,0,0,1-6.67,11.025,9.144,9.144,0,0,1-4.51,1.762l.164.325c.206.405.4.785.577,1.174a.828.828,0,0,1,.074.778A.716.716,0,0,1,866.521,1286.1Zm-.5-28.271a11.362,11.362,0,0,0-10.983,14.223c1.385,6.056,4.278,9.612,9.106,11.194l.222.073-.437.6c-.248.339-.493.673-.724,1.015-.254.373-.238.475-.227.5s.075.095.485.13c.9.079,1.863.141,2.943.191.365.031.434-.052.449-.074s.049-.116-.1-.443c-.177-.384-.369-.76-.572-1.161l-.389-.771.248-.023a8.877,8.877,0,0,0,4.588-1.723,16.259,16.259,0,0,0,6.536-10.8,11.246,11.246,0,0,0-11.145-12.929Zm.376,27.513-2.9-.194,1.6-1.981Zm-2.221-.491,1.593.106-.715-1.194Zm1.355-1.957a8.085,8.085,0,0,1-5.815-2.694,15.963,15.963,0,0,1-4.585-10.329v-.005a11.524,11.524,0,0,1,3.337-8.525,10.535,10.535,0,0,1,7.776-3.114,11.042,11.042,0,0,1,7.942,3.7,10.492,10.492,0,0,1,2.636,8.013,15.053,15.053,0,0,1-6.545,11.332A8.22,8.22,0,0,1,865.533,1282.9Zm-10.058-13.039a15.624,15.624,0,0,0,4.489,10.107c2.949,3.034,6.731,3.417,10.118,1.027a14.723,14.723,0,0,0,6.4-11.083,10.148,10.148,0,0,0-2.553-7.754,10.7,10.7,0,0,0-7.693-3.583c-.093,0-.188,0-.28,0a10.2,10.2,0,0,0-7.246,3.018A11.177,11.177,0,0,0,855.475,1269.856Z" fill="#fff"/>
    </g>
    <g id="Group_1096" data-name="Group 1096">
      <path id="Path_821" data-name="Path 821" d="M864.346,1295.335c1.973-2.4,4.577-4.393,6.127-7.293.089-.166.361-.234.548-.348.036.231.188.545.091.68-.962,1.342-1.916,2.7-2.972,3.964-.987,1.186-2.1,2.271-3.148,3.405-.271.292-.522.6-.9,1.039,1.005-.163,1.874-.181,2.456.559a2.087,2.087,0,0,1,.435,1.219c-.015,1.371-.959,1.843-3.461,1.817.118.323.854,1.632.418,1.848-.735.362-1.469-2.131-1.634-2.531a8.785,8.785,0,0,0-.716,2.209c-.038.24.033.576-.172.739a.377.377,0,0,1-.572-.13.613.613,0,0,1-.019-.27c.039-.486.088-.954.163-1.436a7.642,7.642,0,0,1-1.77.486,3.062,3.062,0,0,1-1.617-.426,1.6,1.6,0,0,1-.608-1.907,1.849,1.849,0,0,1,1.7-1.317,14.1,14.1,0,0,1,1.86.107c-.367-.39-.682-.714-.985-1.048-1.641-1.8-3.33-3.566-4.891-5.436a13.46,13.46,0,0,1-1.446-2.638,2.012,2.012,0,0,1-.171-.847.475.475,0,0,1,.3-.353.47.47,0,0,1,.39.243c.8,2.98,2.909,5.048,4.969,7.135,1.068,1.081,2.243,2.055,3.37,3.078l-.1.214q.3-.62.606-1.24a22.711,22.711,0,0,0,2.529-7.611,8.1,8.1,0,0,0-.275-3.457c-.06-.178.078-.424.124-.638.2.13.506.219.57.4a7.787,7.787,0,0,1,.243,4.311C865.394,1291.71,864.831,1293.526,864.346,1295.335Zm-5.359,5.15c.524-.063,2.973-.745,2.029-1.506a4.526,4.526,0,0,0-2.072-.673,1.35,1.35,0,0,0-.736.057,1.166,1.166,0,0,0-.562,1.1,1.133,1.133,0,0,0,.155.629A1.221,1.221,0,0,0,858.987,1300.485Zm5.681-.8a2.026,2.026,0,0,0,.466.047,1,1,0,0,0,.89-.443,1.245,1.245,0,0,0,.1-.641,1.119,1.119,0,0,0-.277-.824,1.016,1.016,0,0,0-.663-.195,3.853,3.853,0,0,0-1.571.318,1.469,1.469,0,0,0-.661.478c-.233.382-.042.429.311.634A4.977,4.977,0,0,0,864.668,1299.68Z" fill="#fff"/>
      <path id="Path_822" data-name="Path 822" d="M861.182,1302.892a.6.6,0,0,1-.152-.02.5.5,0,0,1-.342-.3.76.76,0,0,1-.028-.345c.033-.435.074-.816.124-1.177-.094.032-.187.066-.279.1a4.354,4.354,0,0,1-1.277.314,3.286,3.286,0,0,1-1.713-.451,1.761,1.761,0,0,1-.68-2.108,2.025,2.025,0,0,1,1.85-1.433,7.386,7.386,0,0,1,1.241.052l.2.019-.051-.054c-.222-.233-.429-.45-.631-.672q-.686-.753-1.378-1.5c-1.175-1.273-2.388-2.589-3.516-3.941a8.925,8.925,0,0,1-1.135-1.974c-.109-.234-.217-.469-.332-.7a2.154,2.154,0,0,1-.19-.922.637.637,0,0,1,.44-.524.614.614,0,0,1,.585.368c.759,2.842,2.778,4.886,4.731,6.862l.194.2c.732.741,1.53,1.445,2.3,2.124q.45.4.9.8l.4-.823a22.6,22.6,0,0,0,2.513-7.554,7.834,7.834,0,0,0-.266-3.385.871.871,0,0,1,.06-.54,1.643,1.643,0,0,0,.058-.19l.053-.246.209.139a1.674,1.674,0,0,0,.193.107.794.794,0,0,1,.443.376,7.92,7.92,0,0,1,.249,4.4c-.278,1.3-.644,2.6-1,3.865-.083.295-.166.59-.247.884.551-.625,1.139-1.23,1.712-1.821a22.255,22.255,0,0,0,3.9-4.86.871.871,0,0,1,.429-.323,1.518,1.518,0,0,0,.18-.091l.219-.135.039.254a1.87,1.87,0,0,0,.055.218.7.7,0,0,1,.008.588l-.286.4c-.855,1.194-1.739,2.429-2.7,3.576-.669.8-1.4,1.571-2.113,2.313-.35.364-.7.728-1.041,1.1-.181.195-.354.4-.561.644l-.04.046a2.233,2.233,0,0,1,2.17.686,2.26,2.26,0,0,1,.47,1.327c-.017,1.618-1.3,1.982-3.37,1.987.006.015.013.029.021.045.283.612.711,1.537.211,1.784a.525.525,0,0,1-.425.013c-.506-.207-.924-1.183-1.3-2.235a7.9,7.9,0,0,0-.533,1.774,1.72,1.72,0,0,0-.012.2.791.791,0,0,1-.221.648A.556.556,0,0,1,861.182,1302.892Zm.02-2.327-.041.267c-.067.433-.118.886-.161,1.424a.44.44,0,0,0,.007.193.162.162,0,0,0,.112.093.244.244,0,0,0,.194-.033c.085-.068.089-.225.093-.39a2.016,2.016,0,0,1,.018-.242,8.8,8.8,0,0,1,.728-2.254l.163-.359.151.365c.025.06.062.164.109.3.19.535.692,1.961,1.146,2.145a.155.155,0,0,0,.145,0c.092-.045.1-.312-.37-1.333-.06-.129-.109-.235-.133-.3l-.084-.232.246,0h.184c2.577,0,3.094-.608,3.105-1.649a1.92,1.92,0,0,0-.4-1.112c-.505-.64-1.252-.664-2.3-.5l-.462.076.637-.745c.211-.249.386-.456.57-.655.345-.371.695-.736,1.045-1.1.705-.737,1.436-1.5,2.1-2.3.947-1.137,1.827-2.367,2.678-3.556l.286-.4a1.038,1.038,0,0,0-.06-.3c0-.01-.006-.021-.01-.033l-.008,0a.677.677,0,0,0-.272.175,22.57,22.57,0,0,1-3.954,4.936c-.744.767-1.514,1.562-2.191,2.383l-.5.609.2-.761c.146-.541.3-1.082.45-1.626.351-1.253.715-2.55.991-3.843a7.586,7.586,0,0,0-.236-4.216c-.021-.058-.168-.132-.277-.186l-.03-.016,0,.008a.692.692,0,0,0-.061.322,8.136,8.136,0,0,1,.281,3.529,22.875,22.875,0,0,1-2.544,7.67l-.607,1.239-.307-.149.047-.1c-.321-.289-.643-.573-.966-.859-.776-.684-1.578-1.392-2.318-2.14l-.194-.2c-1.985-2.008-4.037-4.084-4.82-7.015a.379.379,0,0,0-.2-.118.4.4,0,0,0-.15.185,1.8,1.8,0,0,0,.152.769c.117.231.228.468.338.7a8.741,8.741,0,0,0,1.086,1.9c1.124,1.345,2.336,2.658,3.506,3.928q.693.75,1.381,1.5c.2.219.4.434.625.666l.656.695-.433-.028c-.229-.016-.446-.036-.654-.058a6.5,6.5,0,0,0-1.181-.049,1.681,1.681,0,0,0-1.554,1.2,1.45,1.45,0,0,0,.536,1.707,2.747,2.747,0,0,0,1.523.4,4.087,4.087,0,0,0,1.173-.294c.183-.066.367-.131.554-.186Zm-2.459.105a1.244,1.244,0,0,1-1.085-.487,1.289,1.289,0,0,1-.183-.724,1.334,1.334,0,0,1,.662-1.252,1.522,1.522,0,0,1,.829-.071,4.418,4.418,0,0,1,2.157.71.572.572,0,0,1,.259.624c-.212.736-2.125,1.155-2.375,1.184h0A2.2,2.2,0,0,1,858.743,1300.67Zm-.113-2.217a.838.838,0,0,0-.351.065,1.021,1.021,0,0,0-.462.941.96.96,0,0,0,.127.536c.252.378.845.342,1.023.32.545-.065,1.969-.534,2.087-.939.008-.029.033-.12-.145-.263a4.159,4.159,0,0,0-1.987-.637A2.064,2.064,0,0,0,858.63,1298.453Zm6.471,1.445a2.248,2.248,0,0,1-.467-.05h0a5.109,5.109,0,0,1-1.456-.646l-.1-.058c-.182-.1-.338-.19-.384-.362a.6.6,0,0,1,.115-.451,1.6,1.6,0,0,1,.736-.545,4.057,4.057,0,0,1,1.642-.334,1.188,1.188,0,0,1,.777.239,1.272,1.272,0,0,1,.334.945,1.4,1.4,0,0,1-.119.728,1.149,1.149,0,0,1-1.038.534Zm-.4-.384a1.393,1.393,0,0,0,.427.042.846.846,0,0,0,.742-.354,1.116,1.116,0,0,0,.078-.553.984.984,0,0,0-.219-.7.834.834,0,0,0-.553-.154,3.672,3.672,0,0,0-1.5.3,1.364,1.364,0,0,0-.587.411c-.085.142-.076.184-.076.186.008.032.131.1.221.151l.106.06a4.949,4.949,0,0,0,1.358.608Z" fill="#fff"/>
    </g>
    <g id="Group_1097" data-name="Group 1097">
      <path id="Path_823" data-name="Path 823" d="M852.118,1286a8.842,8.842,0,0,1-4.918-1.77c-4.008-3.034-6.419-6.995-6.479-12.1a10.908,10.908,0,0,1,14.217-10.244c.233.078.517.14.54.422a.37.37,0,0,1-.406.4c-.636-.123-1.254-.354-1.893-.443a10.143,10.143,0,0,0-11.506,12.171,14.557,14.557,0,0,0,5.866,9.115c3.585,2.6,7.344,2.188,10.378-1.031a3.266,3.266,0,0,1,.5-.538c.688-.447.669.261.374.673a4.859,4.859,0,0,1-1.189,1.2c-1,.668-2.07,1.219-3.114,1.813a4.131,4.131,0,0,1-.442.187c.369.505.724.964,1.048,1.443.306.453.2.716-.337.782q-1.468.179-2.942.3c-.583.047-.713-.17-.466-.732C851.582,1287.106,851.838,1286.59,852.118,1286Zm2.123,1.37-1.165-1.394-.9,1.591Z" fill="#fff"/>
      <path id="Path_824" data-name="Path 824" d="M851.672,1288.541a.626.626,0,0,1-.532-.2c-.157-.223-.044-.549.055-.773.162-.369.335-.733.522-1.122l.139-.293a9,9,0,0,1-4.758-1.786c-4.288-3.245-6.491-7.362-6.549-12.238a10.646,10.646,0,0,1,4.522-8.783,10.973,10.973,0,0,1,9.922-1.625l.069.023c.222.072.556.18.588.547a.553.553,0,0,1-.184.45.483.483,0,0,1-.426.128c-.282-.055-.56-.13-.83-.2a8.354,8.354,0,0,0-1.054-.238,10.1,10.1,0,0,0-8.857,3.037,9.963,9.963,0,0,0-2.459,8.929,14.352,14.352,0,0,0,5.8,9.011c3.473,2.521,7.172,2.15,10.153-1.01.055-.057.1-.121.156-.185a1.666,1.666,0,0,1,.377-.377c.4-.26.61-.179.719-.064.207.215.1.676-.113.978a4.982,4.982,0,0,1-1.234,1.238c-.729.49-1.512.925-2.268,1.343-.286.159-.572.316-.855.478a1.973,1.973,0,0,1-.257.116l.2.263c.253.341.5.67.724,1.006a.728.728,0,0,1,.158.71c-.084.187-.286.3-.615.338-.988.121-1.981.221-2.951.3C851.78,1288.538,851.727,1288.541,851.672,1288.541Zm-.024-27.025a10.858,10.858,0,0,0-6.375,2.1,10.311,10.311,0,0,0-4.382,8.5c.056,4.766,2.214,8.793,6.413,11.971a8.716,8.716,0,0,0,4.825,1.735l.251.016-.354.747c-.184.386-.358.746-.518,1.112-.142.322-.1.416-.089.437s.075.079.384.055c.964-.076,1.951-.178,2.935-.3.189-.023.316-.075.346-.14.016-.033.032-.135-.13-.375-.226-.334-.466-.658-.716-.994l-.455-.62.2-.084c.06-.026.116-.047.171-.067a1.8,1.8,0,0,0,.253-.11c.285-.163.571-.322.858-.481.749-.415,1.526-.844,2.244-1.326a4.717,4.717,0,0,0,1.146-1.153.653.653,0,0,0,.143-.544h0s-.078-.02-.284.114a1.367,1.367,0,0,0-.3.3c-.056.071-.113.142-.175.208-3.111,3.3-6.974,3.685-10.6,1.052a14.679,14.679,0,0,1-5.934-9.22,10.294,10.294,0,0,1,2.545-9.232,10.412,10.412,0,0,1,9.153-3.142,8.9,8.9,0,0,1,1.094.247c.265.071.537.144.806.2a.165.165,0,0,0,.133-.045.208.208,0,0,0,.071-.168c-.011-.126-.12-.175-.351-.25l-.074-.024A10.154,10.154,0,0,0,851.648,1261.516Zm.22,26.249,1.18-2.092,1.532,1.831Zm1.236-1.494-.616,1.09,1.413-.135Z" fill="#fff"/>
    </g>
    <g id="Group_1098" data-name="Group 1098">
      <path id="Path_825" data-name="Path 825" d="M872.613,1286.818c.1.448.206.881.3,1.317.107.5-.114.7-.587.567-.819-.229-1.632-.482-2.441-.743-.494-.159-.514-.46-.164-.794.334-.32.692-.616,1.04-.923-.035.03-1.18-.92-1.294-1.013-.222-.18-.607-.386-.665-.695-.074-.391.3-.587.607-.3a5.853,5.853,0,0,0,6.964,1.12c3.95-1.837,6.646-4.819,7.245-9.26a8.369,8.369,0,0,0-4.6-8.5,1.215,1.215,0,0,1-.352-.187c-.266-.3-.211-.97.324-.647a14.278,14.278,0,0,1,2.44,1.638,9.062,9.062,0,0,1,2.3,10.4,12.611,12.611,0,0,1-8.485,7.722A16.972,16.972,0,0,1,872.613,1286.818Zm-.524,1.02-.432-1.293-1.023.829Z" fill="#fff"/>
      <path id="Path_826" data-name="Path 826" d="M872.581,1288.913a1.154,1.154,0,0,1-.3-.046c-.724-.2-1.5-.44-2.447-.746-.293-.095-.465-.241-.51-.439a.693.693,0,0,1,.279-.64c.235-.226.482-.44.729-.652l.146-.127c-.2-.143-.506-.4-1.031-.831l-.087-.071c-.046-.036-.1-.074-.152-.113a1.236,1.236,0,0,1-.574-.681.525.525,0,0,1,.242-.583.556.556,0,0,1,.651.126,5.653,5.653,0,0,0,6.774,1.088c4.189-1.947,6.6-5.018,7.148-9.128a8.166,8.166,0,0,0-4.507-8.327c-.036-.019-.073-.034-.111-.05a.7.7,0,0,1-.379-1.059c.068-.08.266-.243.629-.024.16.1.322.192.485.288a11.1,11.1,0,0,1,1.984,1.372,9.278,9.278,0,0,1,2.339,10.59,12.769,12.769,0,0,1-8.6,7.82,8.8,8.8,0,0,1-1.8.239c-.22.015-.442.029-.666.049l.029.127c.079.338.156.671.227,1.005a.687.687,0,0,1-.125.68A.521.521,0,0,1,872.581,1288.913Zm-1.727-2.526-.3.262c-.243.209-.485.418-.714.639-.133.127-.2.244-.183.316s.117.139.28.191c.942.3,1.715.541,2.436.743.165.046.292.044.346-.007s.065-.183.026-.359c-.071-.333-.148-.664-.226-1l-.116-.5.191-.02c.294-.032.585-.051.873-.07a8.674,8.674,0,0,0,1.732-.227,12.439,12.439,0,0,0,8.373-7.625,8.942,8.942,0,0,0-2.256-10.207,10.84,10.84,0,0,0-1.925-1.325c-.163-.1-.327-.194-.487-.29-.094-.058-.167-.079-.19-.051a.436.436,0,0,0,.083.438.525.525,0,0,0,.161.086,1.314,1.314,0,0,1,.142.064,8.505,8.505,0,0,1,4.688,8.675c-.571,4.232-3.041,7.391-7.344,9.392a6.035,6.035,0,0,1-7.153-1.15c-.086-.083-.182-.116-.253-.073a.189.189,0,0,0-.068.217c.033.177.247.332.437.468.06.044.117.085.168.127l.087.072c.858.7,1.1.887,1.158.915l-.073.142.128.144Zm1.505,1.717-2.077-.665,1.459-1.183Zm-1.37-.8.832.266-.249-.738Z" fill="#fff"/>
    </g>
    <g id="Group_1099" data-name="Group 1099">
      <path id="Path_827" data-name="Path 827" d="M842.727,1272.338a6.459,6.459,0,0,1,.04-1.382,8.177,8.177,0,0,1,1.825-3.783,8.781,8.781,0,0,1,4.5-3.038c.645-.18.755.505.18.7a8.465,8.465,0,0,0-4.836,3.932,7.447,7.447,0,0,0-.849,2.97,14.58,14.58,0,0,0,.437,3.4c.074.483-.576.676-.7.208A16.923,16.923,0,0,1,842.727,1272.338Z" fill="#fff"/>
      <path id="Path_828" data-name="Path 828" d="M843.638,1275.782a.5.5,0,0,1-.481-.4l-.031-.116a16.708,16.708,0,0,1-.57-2.919h0a6.726,6.726,0,0,1,.041-1.417,8.228,8.228,0,0,1,1.86-3.866,8.986,8.986,0,0,1,4.586-3.1c.419-.118.678.066.749.3a.615.615,0,0,1-.47.727,8.243,8.243,0,0,0-4.74,3.85,7.318,7.318,0,0,0-.828,2.9,8.42,8.42,0,0,0,.246,2.339c.067.331.135.668.19,1.022a.57.57,0,0,1-.441.661A.543.543,0,0,1,843.638,1275.782Zm-.74-3.456a16.284,16.284,0,0,0,.56,2.857l.03.117a.157.157,0,0,0,.191.136.226.226,0,0,0,.171-.275c-.052-.349-.12-.68-.185-1.006a8.692,8.692,0,0,1-.253-2.432,7.668,7.668,0,0,1,.868-3.039,8.579,8.579,0,0,1,4.933-4.013c.216-.073.277-.22.252-.3s-.156-.117-.331-.069a8.66,8.66,0,0,0-4.409,2.979,7.894,7.894,0,0,0-1.788,3.7,6.18,6.18,0,0,0-.039,1.345Z" fill="#fff"/>
    </g>
    <g id="Group_1100" data-name="Group 1100">
      <path id="Path_829" data-name="Path 829" d="M856.712,1269.118a8.91,8.91,0,0,1,.354-2.423,9.139,9.139,0,0,1,4.076-5.259,8.9,8.9,0,0,1,3.254-1.154c.572-.084.767.339.3.664a3.4,3.4,0,0,1-1.04.26,9.012,9.012,0,0,0-2.231.953,8.424,8.424,0,0,0-3.144,3.5,8.279,8.279,0,0,0-.685,4.783c.1.83-.532.774-.772.088A4.553,4.553,0,0,1,856.712,1269.118Z" fill="#fff"/>
      <path id="Path_830" data-name="Path 830" d="M857.328,1271.228c-.263,0-.533-.253-.669-.64a4.015,4.015,0,0,1-.121-1.288l0-.183a9.057,9.057,0,0,1,.361-2.47,9.337,9.337,0,0,1,4.153-5.358,9.117,9.117,0,0,1,3.317-1.177c.422-.059.653.112.727.3s.025.446-.309.677a1.66,1.66,0,0,1-.744.222,2.771,2.771,0,0,0-.349.061,8.922,8.922,0,0,0-2.188.934,8.28,8.28,0,0,0-3.079,3.432,8.081,8.081,0,0,0-.668,4.688c.078.645-.243.77-.342.793A.365.365,0,0,1,857.328,1271.228Zm-.445-2.108,0,.186a3.742,3.742,0,0,0,.1,1.17c.1.3.27.41.346.41h.015c.049-.012.115-.137.08-.421a8.417,8.417,0,0,1,.7-4.88,8.6,8.6,0,0,1,3.21-3.571,9.131,9.131,0,0,1,2.272-.971,2.778,2.778,0,0,1,.4-.072,1.4,1.4,0,0,0,.593-.163c.158-.11.207-.218.186-.273s-.132-.119-.361-.083a8.784,8.784,0,0,0-3.191,1.132,9,9,0,0,0-4,5.16,8.711,8.711,0,0,0-.347,2.377Z" fill="#fff"/>
    </g>
  </g>
</svg>
